<?xml version="1.0" encoding="utf-8"?>
<!-- Generator: Adobe Illustrator 25.1.0, SVG Export Plug-In . SVG Version: 6.00 Build 0)  -->
<svg version="1.1" id="Layer_1" xmlns="http://www.w3.org/2000/svg" xmlns:xlink="http://www.w3.org/1999/xlink" x="0px" y="0px"
	 viewBox="0 0 512 512" style="enable-background:new 0 0 512 512;" xml:space="preserve">
<style type="text/css">
	.st0{fill:#1544A0;}
</style>
<g>
	<path class="st0" d="M160.9,309.6c-7.6,0-13.8-6.2-13.8-13.8v-16.4c0-7.6,6.2-13.8,13.8-13.8H193c7.6,0,13.8,6.2,13.8,13.8v16.4
		c0,7.6-6.2,13.8-13.8,13.8H160.9z M160.9,277.9c-0.8,0-1.5,0.7-1.5,1.5v16.4c0,0.8,0.7,1.5,1.5,1.5H193c0.8,0,1.5-0.7,1.5-1.5
		v-16.4c0-0.8-0.7-1.5-1.5-1.5H160.9z"/>
	<path class="st0" d="M129.5,341.2c-3.4,0-6.1-2.7-6.1-6.1c0-3.4,2.7-6.1,6.1-6.1h94.9c3.4,0,6.1,2.7,6.1,6.1c0,3.4-2.7,6.1-6.1,6.1
		H129.5z"/>
	<path class="st0" d="M129.5,372.8c-3.4,0-6.1-2.7-6.1-6.1s2.7-6.1,6.1-6.1h94.9c3.4,0,6.1,2.7,6.1,6.1s-2.7,6.1-6.1,6.1H129.5z"/>
	<path class="st0" d="M129.5,404.4c-3.4,0-6.1-2.7-6.1-6.1s2.7-6.1,6.1-6.1h94.9c3.4,0,6.1,2.7,6.1,6.1s-2.7,6.1-6.1,6.1H129.5z"/>
	<path class="st0" d="M319,309.6c-7.6,0-13.8-6.2-13.8-13.8v-16.4c0-7.6,6.2-13.8,13.8-13.8h32.2c7.6,0,13.8,6.2,13.8,13.8v16.4
		c0,7.6-6.2,13.8-13.8,13.8H319z M319,277.9c-0.8,0-1.5,0.7-1.5,1.5v16.4c0,0.8,0.7,1.5,1.5,1.5h32.2c0.8,0,1.5-0.7,1.5-1.5v-16.4
		c0-0.8-0.7-1.5-1.5-1.5H319z"/>
	<path class="st0" d="M287.6,341.2c-3.4,0-6.1-2.7-6.1-6.1c0-3.4,2.7-6.1,6.1-6.1h94.9c3.4,0,6.1,2.7,6.1,6.1c0,3.4-2.7,6.1-6.1,6.1
		H287.6z"/>
	<path class="st0" d="M287.6,372.8c-3.4,0-6.1-2.7-6.1-6.1s2.7-6.1,6.1-6.1h94.9c3.4,0,6.1,2.7,6.1,6.1s-2.7,6.1-6.1,6.1H287.6z"/>
	<path class="st0" d="M287.6,404.4c-3.4,0-6.1-2.7-6.1-6.1s2.7-6.1,6.1-6.1h94.9c3.4,0,6.1,2.7,6.1,6.1s-2.7,6.1-6.1,6.1H287.6z"/>
	<path class="st0" d="M82.1,499.3c-5.8,0-11.4-2.3-15.5-6.4c-4.1-4.1-6.4-9.7-6.4-15.5V320.6l-0.1-0.2
		c-10.4-25.5-15.7-52.5-15.7-80.2c0-32.6,7.7-65.2,22.1-94.3l0.3-0.7l-0.5-0.5c-4-4.1-6.1-9.5-6.1-15.2c0-12.1,9.8-21.9,21.9-21.9
		c2.4,0,4.8,0.4,7.1,1.2l0.7,0.2l0.5-0.6c35.2-44.2,87.6-73,143.6-78.8l0.7-0.1l0.2-0.7c2.6-9.5,11.3-16.2,21.2-16.2
		c9.9,0,18.6,6.7,21.2,16.2l0.2,0.7l0.7,0.1c30.7,3.2,59.8,12.8,86.3,28.7c2.9,1.7,3.8,5.5,2.1,8.4c-1.1,1.8-3.1,3-5.3,3
		c-1.1,0-2.2-0.3-3.1-0.9C333.3,54,306.2,45,277.5,41.9l-0.8-0.1l-0.3,0.7c-3.3,8.4-11.5,14-20.5,14c-9,0-17.2-5.6-20.4-14l-0.3-0.7
		l-0.8,0.1c-52.4,5.6-101.3,32.6-134.3,73.9l-0.5,0.6l0.4,0.6c2.6,3.7,3.9,8,3.9,12.5c0,12.1-9.8,21.9-21.9,21.9
		c-1.2,0-2.5-0.1-3.7-0.3l-0.8-0.1l-0.3,0.7c-13.5,27.3-20.7,57.9-20.7,88.5c0,12.8,1.2,25.6,3.6,38l0.6,3.1l1.3-2.9
		c3.6-7.8,11.4-12.8,19.9-12.8h9.7V256c0-9.6,6.1-18,15.2-20.9l0.7-0.2l0-0.7c1.4-33.9,14.5-66.6,37-92.1l0-0.1l0-0.1
		c0.3-0.5,0.7-0.9,1.1-1.3l0.1,0l0-0.1c28.1-31,68.2-48.8,109.9-48.8s81.8,17.8,109.9,48.8l0,0.1l0.1,0c0.4,0.4,0.8,0.8,1.1,1.3
		l0,0.1l0,0.1c22.5,25.5,35.7,58.2,37,92.1l0,0.7l0.7,0.2c9.1,2.9,15.2,11.3,15.2,20.9v9.7h9.7c8.5,0,16.3,5,19.9,12.8l1.3,2.9
		l0.6-3.1c2.4-12.5,3.6-25.2,3.6-38c0-30.6-7.1-61.2-20.7-88.5l-0.3-0.7l-0.8,0.1c-1.2,0.2-2.5,0.3-3.7,0.3
		c-12.1,0-21.9-9.8-21.9-21.9c0-4.5,1.4-8.8,3.9-12.5l0.4-0.6l-0.5-0.6c-9-11.3-19.3-21.7-30.6-30.8c-2.6-2.1-3-6-0.9-8.6
		c1.2-1.4,2.9-2.3,4.8-2.3c1.4,0,2.7,0.5,3.9,1.4c12,9.7,23,20.8,32.7,32.9l0.5,0.6l0.7-0.2c2.3-0.8,4.7-1.2,7.1-1.2
		c12.1,0,21.9,9.8,21.9,21.9c0,5.7-2.2,11.1-6.1,15.2l-0.5,0.5l0.3,0.6c14.5,29.1,22.1,61.7,22.1,94.3c0,27.7-5.3,54.7-15.7,80.2
		l-0.1,0.2v156.8c0,12.1-9.8,21.9-21.9,21.9H191.3c-3.4,0-6.1-2.7-6.1-6.1s2.7-6.1,6.1-6.1h238.7c5.3,0,9.7-4.3,9.7-9.7V287.6
		c0-5.3-4.3-9.7-9.7-9.7h-9.7v167.8c0,12.1-9.8,21.9-21.9,21.9H113.7c-12.1,0-21.9-9.8-21.9-21.9V277.9h-9.7c-5.3,0-9.7,4.3-9.7,9.7
		v189.7c0,5.3,4.3,9.7,9.7,9.7h80.5c3.4,0,6.1,2.7,6.1,6.1s-2.7,6.1-6.1,6.1H82.1z M104,445.7c0,5.3,4.3,9.7,9.7,9.7l135.5,0
		l-0.4-1.3c-3.3-10.6-13.3-18-24.4-18H104V445.7z M287.6,436c-11.1,0-21.1,7.4-24.4,18l-0.4,1.3h135.5c5.3,0,9.7-4.3,9.7-9.7l0-9.7
		H287.6z M113.7,246.3c-5.3,0-9.7,4.3-9.7,9.7v167.8h120.4c8.6,0,17.1,3,23.8,8.5l1.7,1.4V271.8c0-14.1-11.4-25.5-25.5-25.5H113.7z
		 M287.6,246.3c-14.1,0-25.5,11.4-25.5,25.5v161.8l1.7-1.4c6.7-5.5,15.2-8.5,23.8-8.5H408V256c0-5.3-4.3-9.7-9.7-9.7H287.6z
		 M200.4,170.6c-5.5,19-8.8,40.6-9.3,62.4l0,1.1h33.3c12.2,0,23.7,6,30.8,15.9l0.8,1.2l0.8-1.2c7.1-10,18.6-15.9,30.8-15.9H321
		l0-1.1c-0.6-21.8-3.8-43.4-9.3-62.4l-0.3-0.9l-0.9,0.2c-17.4,3.5-35.8,5.3-54.4,5.3c-18.7,0-37-1.8-54.4-5.3l-0.9-0.2L200.4,170.6z
		 M150.9,153.7c-18.7,22.6-29.3,50.1-30.9,79.3l-0.1,1.1l58.8,0l0-1c0.6-23.1,3.8-45.1,9.5-65.2l0.3-1l-1-0.3
		c-13.1-3.5-25-7.9-35.5-13.2l-0.7-0.4L150.9,153.7z M359.8,153.4c-10.4,5.3-22.4,9.7-35.5,13.2l-1,0.3l0.3,1
		c5.8,20.1,9,42,9.5,65.2l0,1H392L392,233c-1.5-29.2-12.2-56.6-30.9-79.3l-0.5-0.6L359.8,153.4z M256,104c-19.8,0-38.4,19.3-51,52.8
		l-0.4,1.1l1.2,0.2c16.1,3.1,33,4.7,50.3,4.7s34.2-1.6,50.3-4.7l1.2-0.2l-0.4-1.1C294.4,123.3,275.8,104,256,104z M215.7,110.1
		c-20.3,6.3-39.2,17.6-54.6,32.5l-1.1,1l1.3,0.6c9,4.2,19.1,7.8,30.1,10.7l0.9,0.2l0.3-0.9c2.3-6.2,4.8-12.1,7.5-17.5
		c4.9-9.8,10.5-18.2,16.6-25.1l2.5-2.8L215.7,110.1z M295.2,111.8c6.1,6.8,11.7,15.2,16.6,25.1c2.7,5.4,5.2,11.3,7.5,17.5l0.3,0.9
		l0.9-0.2c11-2.9,21.1-6.5,30.1-10.7l1.3-0.6l-1.1-1c-15.4-15-34.3-26.2-54.6-32.5l-3.6-1.1L295.2,111.8z M429.9,119.8
		c-5.3,0-9.7,4.3-9.7,9.7c0,5.3,4.3,9.7,9.7,9.7c1.6,0,3.2-0.4,4.6-1.1l0.1,0c3.1-1.7,5-5,5-8.5
		C439.6,124.2,435.3,119.8,429.9,119.8z M82.1,119.8c-2.6,0-5,1-6.8,2.8s-2.8,4.3-2.8,6.8c0,5.3,4.3,9.7,9.7,9.7
		c5.3,0,9.7-4.3,9.7-9.7C91.8,124.2,87.4,119.8,82.1,119.8z M256,25c-5.3,0-9.7,4.3-9.7,9.7s4.3,9.7,9.7,9.7c5.3,0,9.7-4.3,9.7-9.7
		S261.3,25,256,25z"/>
</g>
</svg>
