<?xml version="1.0" encoding="utf-8"?>
<!-- Generator: Adobe Illustrator 25.1.0, SVG Export Plug-In . SVG Version: 6.00 Build 0)  -->
<svg version="1.1" id="Layer_1" xmlns="http://www.w3.org/2000/svg" xmlns:xlink="http://www.w3.org/1999/xlink" x="0px" y="0px"
	 viewBox="0 0 512 512" style="enable-background:new 0 0 512 512;" xml:space="preserve">
<style type="text/css">
	.st0{fill:#1544A0;}
</style>
<g>
	<path class="st0" d="M380.4,385.9c-15.8,0-31.2-3-45.6-9c-3.1-1-19.2-6.8-42.4-25.1c-2.7-2.1-3.1-6-1-8.7c1.2-1.5,2.9-2.3,4.8-2.3
		c1.4,0,2.7,0.5,3.8,1.3c22.9,18.2,38.4,23,38.5,23.1c0.2,0.1,0.4,0.1,0.6,0.2c13.1,5.4,26.9,8.2,41.2,8.2
		c26.2,0,51.5-9.5,71.2-26.8c19.5-17.2,32.2-40.7,35.7-66.3c0.4-3,3-5.3,6.1-5.3c0.3,0,0.6,0,0.8,0.1c3.4,0.5,5.7,3.6,5.3,7
		c-3.9,28.5-18,54.8-39.7,73.9C437.8,375.3,409.6,385.9,380.4,385.9z"/>
	<path class="st0" d="M132.7,385.9c-32.3,0-62.6-12.6-85.3-35.5c-22.7-22.9-35.1-53.3-34.9-85.6c0.2-32,13-62.1,36-84.7
		c22.7-22.3,52.6-34.6,84.1-34.6c0.4,0,0.9,0,1.3,0c14.9,0.1,29.5,3,43.3,8.5c0.7,0.3,1.3,0.5,2,0.8c6.3,2.4,39.8,16.6,77.6,63.5
		l0.8,1l0.8-1c44.2-54.5,71.6-62.8,76.7-64l0.1,0l0.1,0c12.8-5.2,26.4-8.2,40.3-8.7l4.9-0.1c28.8,0,56.7,10.4,78.5,29.2
		c21.6,18.6,35.9,44.3,40.2,72.3c0.5,3.4-1.8,6.5-5.1,7.1c-0.3,0-0.6,0.1-1,0.1c-3.1,0-5.6-2.2-6.1-5.2
		c-3.9-25.1-16.8-48.1-36.1-64.8c-19.5-16.9-44.5-26.2-70.4-26.2l-4.6,0.1c-12.7,0.5-25.1,3.2-36.7,8.1c-0.6,0.2-0.8,0.3-1.3,0.4
		c-1.2,0.3-27.9,6.9-72.4,62.7l-0.1,0.1c-0.5,0.6-50.1,59.6-70.5,81.1c-14,14.7-33.8,31.5-62.7,31.5c-42,0-76.1-34.1-76.1-76.1
		c0-25.5,12.7-49.2,33.9-63.4c1-0.7,2.2-1,3.4-1c2.1,0,4,1,5.1,2.7c1.9,2.8,1.1,6.7-1.7,8.6c-17.8,11.9-28.4,31.7-28.4,53.1
		c0,35.2,28.6,63.8,63.8,63.8c18.9,0,35.5-8.5,53.8-27.7c12.3-12.9,23.4-25.1,34-37.3l0.6-0.7l-0.6-0.7
		c-6.8-7.5-20.8-22.3-37.5-37.1c-23.8-21.2-38.8-24.1-50.3-24.1c-2.1,0-4.3,0.1-6.4,0.3c-0.2,0-0.4,0-0.6,0c-3.2,0-5.8-2.4-6.1-5.6
		c-0.3-3.4,2.1-6.4,5.5-6.8c2.5-0.2,5.1-0.4,7.6-0.4c24.7,0,43.5,13.7,58.5,27.2c16.6,14.8,30.4,29.4,37.2,36.7l0.8,0.8l0.7-0.9
		c3.6-4.3,19.5-23.6,19.6-23.8l0.5-0.6l-0.5-0.6c-37.3-47.3-70.5-60.7-74.1-62c-0.8-0.3-1.5-0.6-2.3-0.9
		c-12.4-4.9-25.4-7.5-38.8-7.6l-1.1,0c-28.3,0-55.2,11-75.5,31c-20.6,20.3-32.1,47.3-32.3,76c-0.2,29,10.9,56.2,31.3,76.8
		c20.4,20.5,47.5,31.9,76.5,31.9l4.6-0.1c12.7-0.5,25.1-3.2,36.7-8.1c0.5-0.2,0.8-0.3,1.3-0.4c1.2-0.3,28.4-7.1,73.8-64.5
		c1.3-1.7,48.6-57.8,69.2-79.4c14-14.7,33.8-31.5,62.7-31.5c42,0,76.1,34.1,76.1,76.1c0,41.9-34.1,76.1-76.1,76.1
		c-24.7,0-43.5-13.7-58.5-27.2c-16.6-14.8-30.4-29.4-37.2-36.7l-0.8-0.8l-0.7,0.9c-2.4,2.8-9,10.9-14.4,17.5c-3.1,3.7-5.7,7-7.1,8.6
		l-0.5,0.7l0.6,0.6c4.5,5.2,9,10.1,13.5,14.7c2.4,2.4,2.3,6.4-0.1,8.7c-1.2,1.1-2.7,1.8-4.3,1.8c-1.7,0-3.2-0.7-4.4-1.9
		c-4.1-4.2-8.3-8.7-12.4-13.4l-0.8-0.9l-0.7,0.9c-43.2,52.5-69.9,60.7-74.9,61.8l-0.1,0l-0.1,0c-12.8,5.2-26.4,8.2-40.3,8.7
		L132.7,385.9z M380.9,201.9c-18.9,0-35.5,8.5-53.8,27.7c-12.3,12.9-23.5,25.1-34,37.3l-0.6,0.7l0.6,0.7
		c6.8,7.5,20.8,22.3,37.5,37.1c23.8,21.2,38.8,24.1,50.3,24.1c35.2,0,63.8-28.6,63.8-63.8C444.6,230.5,416,201.9,380.9,201.9
		L380.9,201.9z"/>
</g>
</svg>
