<?xml version="1.0" encoding="utf-8"?>
<!-- Generator: Adobe Illustrator 25.1.0, SVG Export Plug-In . SVG Version: 6.00 Build 0)  -->
<svg version="1.1" id="Layer_1" xmlns="http://www.w3.org/2000/svg" xmlns:xlink="http://www.w3.org/1999/xlink" x="0px" y="0px"
	 viewBox="0 0 512 512" style="enable-background:new 0 0 512 512;" xml:space="preserve">
<style type="text/css">
	.st0{fill:#1544A0;}
</style>
<g>
	<g>
		<g>
			<path class="st0" d="M45.3,473c-22.1,0-40-18-40-40V95.9c0-22.1,18-40,40-40h44.2V36.9c0-17.4,14.2-31.6,31.6-31.6
				c17.4,0,31.6,14.2,31.6,31.6v18.9h71.6V36.9c0-17.4,14.2-31.6,31.6-31.6s31.6,14.2,31.6,31.6v18.9h71.6V36.9
				c0-17.4,14.2-31.6,31.6-31.6c17.4,0,31.6,14.2,31.6,31.6v18.9h44.2c22.1,0,40,18,40,40V315c0,3.5-2.8,6.3-6.3,6.3
				s-6.3-2.8-6.3-6.3V169.7H18V433c0,15,12.3,27.3,27.4,27.4h235.9c3.5,0,6.3,2.8,6.3,6.3s-2.8,6.3-6.3,6.3H45.3z M494,157V95.9
				c0-15-12.3-27.3-27.4-27.4h-44.2v18.9c0,17.4-14.2,31.6-31.6,31.6c-17.4,0-31.6-14.2-31.6-31.6V68.5h-71.6v18.9
				c0,17.4-14.2,31.6-31.6,31.6s-31.6-14.2-31.6-31.6V68.5h-71.6v18.9c0,17.4-14.2,31.6-31.6,31.6c-17.4,0-31.6-14.2-31.6-31.6V68.5
				H45.3c-15,0-27.3,12.3-27.4,27.4V157H494z M390.8,18c-10.4,0-18.9,8.5-18.9,18.9v50.6c0,10.4,8.5,18.9,18.9,18.9
				s18.9-8.5,18.9-18.9V36.9C409.8,26.5,401.3,18,390.8,18z M256,18c-10.4,0-18.9,8.5-18.9,18.9v50.6c0,10.4,8.5,18.9,18.9,18.9
				s18.9-8.5,18.9-18.9V36.9C274.9,26.5,266.4,18,256,18z M121.2,18c-10.4,0-18.9,8.5-18.9,18.9v50.6c0,10.4,8.5,18.9,18.9,18.9
				s18.9-8.5,18.9-18.9V36.9C140.1,26.5,131.6,18,121.2,18z"/>
		</g>
		<g>
			<path class="st0" d="M188.6,270.8c-8.1,0-14.8-6.6-14.8-14.8v-25.3c0-8.1,6.6-14.8,14.8-14.8h33.7c8.1,0,14.8,6.6,14.8,14.8V256
				c0,8.1-6.6,14.8-14.8,14.8H188.6z M224.4,258.1v-29.4h-37.9v29.4H224.4z"/>
		</g>
		<g>
			<path class="st0" d="M87.5,270.8c-8.1,0-14.8-6.6-14.8-14.8v-25.3c0-8.1,6.6-14.8,14.8-14.8h33.7c8.1,0,14.8,6.6,14.8,14.8V256
				c0,8.1-6.6,14.8-14.8,14.8H87.5z M123.3,258.1v-29.4H85.4v29.4H123.3z"/>
		</g>
		<g>
			<path class="st0" d="M390.8,270.8c-8.1,0-14.8-6.6-14.8-14.8v-25.3c0-8.1,6.6-14.8,14.8-14.8h33.7c8.1,0,14.8,6.6,14.8,14.8V256
				c0,8.1-6.6,14.8-14.8,14.8H390.8z M426.6,258.1v-29.4h-37.9v29.4H426.6z"/>
		</g>
		<g>
			<path class="st0" d="M188.6,346.6c-8.1,0-14.8-6.6-14.8-14.8v-25.3c0-8.1,6.6-14.8,14.8-14.8h33.7c8.1,0,14.8,6.6,14.8,14.8v25.3
				c0,8.1-6.6,14.8-14.8,14.8H188.6z M224.4,333.9v-29.4h-37.9v29.4H224.4z"/>
		</g>
		<g>
			<path class="st0" d="M87.5,346.6c-8.1,0-14.8-6.6-14.8-14.8v-25.3c0-8.1,6.6-14.8,14.8-14.8h33.7c8.1,0,14.8,6.6,14.8,14.8v25.3
				c0,8.1-6.6,14.8-14.8,14.8H87.5z M123.3,333.9v-29.4H85.4v29.4H123.3z"/>
		</g>
		<g>
			<path class="st0" d="M188.6,422.4c-8.1,0-14.8-6.6-14.8-14.8v-25.3c0-8.1,6.6-14.8,14.8-14.8h33.7c8.1,0,14.8,6.6,14.8,14.8v25.3
				c0,8.1-6.6,14.8-14.8,14.8H188.6z M224.4,409.8v-29.4h-37.9v29.4H224.4z"/>
		</g>
		<g>
			<path class="st0" d="M289.7,270.8c-8.1,0-14.8-6.6-14.8-14.8v-25.3c0-8.1,6.6-14.8,14.8-14.8h33.7c8.1,0,14.8,6.6,14.8,14.8V256
				c0,8.1-6.6,14.8-14.8,14.8H289.7z M325.5,258.1v-29.4h-37.9v29.4H325.5z"/>
		</g>
		<g>
			<path class="st0" d="M289.7,346.6c-8.1,0-14.8-6.6-14.8-14.8v-25.3c0-8.1,6.6-14.8,14.8-14.8h33.7c3.5,0,6.3,2.8,6.3,6.3
				s-2.8,6.3-6.3,6.3h-35.8v29.4h2.1c3.5,0,6.3,2.8,6.3,6.3S293.2,346.6,289.7,346.6z"/>
		</g>
		<g>
			<path class="st0" d="M87.5,422.4c-8.1,0-14.8-6.6-14.8-14.8v-25.3c0-8.1,6.6-14.8,14.8-14.8h33.7c8.1,0,14.8,6.6,14.8,14.8v25.3
				c0,8.1-6.6,14.8-14.8,14.8H87.5z M123.3,409.8v-29.4H85.4v29.4H123.3z"/>
		</g>
		<g>
			<path class="st0" d="M399.3,506.7c-59.3,0-107.5-48.2-107.5-107.5S340,291.8,399.3,291.8c59.2,0.1,107.4,48.3,107.5,107.5
				C506.7,458.5,458.5,506.7,399.3,506.7z M399.3,304.5c-52.3,0-94.8,42.5-94.8,94.8S347,494,399.3,494
				c52.2-0.1,94.7-42.6,94.8-94.8C494,347,451.5,304.5,399.3,304.5z"/>
		</g>
		<g>
			<path class="st0" d="M382.4,447.7c-1.7,0-3.3-0.7-4.5-1.9l-35.7-35.8c-2.4-2.5-2.4-6.3,0-8.8c1.2-1.2,2.8-1.9,4.6-1.9
				c1.7,0,3.2,0.6,4.4,1.8l31.2,31.2l67-67c1.2-1.1,2.7-1.8,4.4-1.8c1.7,0,3.2,0.6,4.4,1.8c1.2,1.2,1.9,2.8,1.9,4.5
				c0,1.7-0.6,3.3-1.8,4.5l-71.5,71.5C385.7,447.1,384.1,447.7,382.4,447.7z"/>
		</g>
	</g>
</g>
</svg>
